<svg width="140" height="29" viewBox="0 0 140 29" fill="none" xmlns="http://www.w3.org/2000/svg">
<path d="M11.8672 28.1406C11.5977 28.0469 11.0176 28 10.127 28H2.79688C2.1875 28 1.70117 27.9062 1.33789 27.7188C0.974609 27.5195 0.792969 27.1621 0.792969 26.6465C0.792969 26.2715 0.880859 25.9727 1.05664 25.75C1.52539 25.8672 1.95898 25.9258 2.35742 25.9258C2.75586 25.9258 3.07227 25.8848 3.30664 25.8027C3.54102 25.709 3.74609 25.5508 3.92188 25.3281C4.27344 24.8594 4.44922 24.0801 4.44922 22.9902V5.00781C4.41406 4.1875 4.14453 3.66602 3.64062 3.44336C3.48828 3.37305 3.27734 3.30859 3.00781 3.25L2.16406 3.07422C1.58984 2.93359 1.23828 2.76367 1.10938 2.56445C0.980469 2.35352 0.916016 2.14258 0.916016 1.93164C0.916016 1.49805 1.00391 1.1582 1.17969 0.912109C1.44922 1.00586 2.0293 1.05273 2.91992 1.05273H10.0742C10.6836 1.05273 11.1699 1.15234 11.5332 1.35156C11.9082 1.53906 12.0957 1.89063 12.0957 2.40625C12.0957 2.79297 12.002 3.0918 11.8145 3.30273C11.3691 3.18555 10.8828 3.12695 10.3555 3.12695C9.21875 3.12695 8.63281 4.05273 8.59766 5.9043V13.6738H22.6602V5.00781C22.625 4.1875 22.3555 3.66602 21.8516 3.44336C21.6992 3.37305 21.4883 3.30859 21.2188 3.25L20.375 3.07422C19.8008 2.93359 19.4492 2.76367 19.3203 2.56445C19.1914 2.35352 19.127 2.14258 19.127 1.93164C19.127 1.46289 19.2148 1.12305 19.3906 0.912109C19.6602 1.00586 20.2402 1.05273 21.1309 1.05273H28.2852C28.8945 1.05273 29.3809 1.15234 29.7441 1.35156C30.1191 1.53906 30.3066 1.89063 30.3066 2.40625C30.3066 2.79297 30.2129 3.0918 30.0254 3.30273C29.5801 3.18555 29.0938 3.12695 28.5664 3.12695C27.4297 3.12695 26.8438 4.05273 26.8086 5.9043V23.8516C26.8086 24.5078 26.9082 24.9414 27.1074 25.1523C27.4004 25.4688 27.7637 25.6738 28.1973 25.7676C28.6309 25.8496 28.9883 25.9258 29.2695 25.9961C29.5508 26.0547 29.7852 26.1309 29.9727 26.2246C30.3477 26.4121 30.5352 26.7285 30.5352 27.1738C30.5352 27.584 30.4414 27.9062 30.2539 28.1406C29.9844 28.0469 29.4043 28 28.5137 28H21.1836C20.5742 28 20.0879 27.9062 19.7246 27.7188C19.3613 27.5195 19.1797 27.1621 19.1797 26.6465C19.1797 26.2715 19.2676 25.9727 19.4434 25.75C19.8887 25.8672 20.3047 25.9258 20.6914 25.9258C21.0781 25.9258 21.377 25.8848 21.5879 25.8027C21.7988 25.7207 21.9805 25.5742 22.1328 25.3633C22.4609 24.9297 22.6367 24.1973 22.6602 23.166V16.0996H8.59766V23.8516C8.59766 24.7773 8.85547 25.3633 9.37109 25.6094C9.53516 25.6797 9.75781 25.7441 10.0391 25.8027C10.3203 25.8613 10.5957 25.9258 10.8652 25.9961C11.1465 26.0547 11.3809 26.1309 11.5684 26.2246C11.9551 26.4238 12.1484 26.7402 12.1484 27.1738C12.1484 27.584 12.0547 27.9062 11.8672 28.1406ZM52.7012 28.1406C52.4316 28.0469 51.8516 28 50.9609 28H40.9062C40.2969 28 39.8047 27.9062 39.4297 27.7188C39.0664 27.5195 38.8848 27.1621 38.8848 26.6465C38.8848 26.2832 38.9785 25.9844 39.166 25.75C39.6113 25.8672 40.0332 25.9258 40.4316 25.9258C40.8301 25.9258 41.2051 25.8848 41.5566 25.8027C41.9082 25.7207 42.2422 25.5742 42.5586 25.3633C43.3086 24.8828 43.707 24.1504 43.7539 23.166V3.61914H41.4688C39.7695 3.61914 38.6562 3.70117 38.1289 3.86523C37.6133 4.01758 37.2207 4.2168 36.9512 4.46289C36.6934 4.70898 36.4824 5.04297 36.3184 5.46484C36.0254 6.19141 35.7969 7.44531 35.6328 9.22656C35.375 9.28516 35.1406 9.31445 34.9297 9.31445C34.4609 9.31445 34.1621 9.19141 34.0332 8.94531C33.9043 8.69922 33.8164 8.44727 33.7695 8.18945C33.7227 7.91992 33.6875 7.62695 33.6641 7.31055C33.6172 6.67773 33.5938 6.00391 33.5938 5.28906C33.5938 3.33203 33.7461 2.08984 34.0508 1.5625C34.3555 1 34.9648 0.71875 35.8789 0.71875C36.0547 0.71875 36.3125 0.736328 36.6523 0.771484C36.9922 0.806641 37.4844 0.847656 38.1289 0.894531C39.875 1 41.9668 1.05273 44.4043 1.05273H47.375C50.7734 1.05273 53.0469 1 54.1953 0.894531C55.3438 0.777344 56.0586 0.71875 56.3398 0.71875C56.6211 0.71875 56.8789 0.759766 57.1133 0.841797C57.3477 0.923828 57.5352 1.04102 57.6758 1.19336C57.8984 1.45117 58.0098 1.77344 58.0098 2.16016C58.0098 2.74609 57.9922 3.21484 57.957 3.56641C57.9219 3.91797 57.8809 4.33398 57.834 4.81445C57.7988 5.29492 57.7461 5.79297 57.6758 6.30859C57.5117 7.52734 57.3066 8.36523 57.0605 8.82227C56.8262 9.15039 56.5391 9.31445 56.1992 9.31445C55.8711 9.31445 55.5781 9.28516 55.3203 9.22656L55.3379 8.11914C55.3379 7.07617 55.2793 6.25586 55.1621 5.6582C55.0449 5.04883 54.7988 4.59766 54.4238 4.30469C54.0488 4 53.5098 3.8125 52.8066 3.74219C52.1035 3.66016 51.166 3.61914 49.9941 3.61914H47.8848V23.8516C47.8848 24.6953 48.5586 25.2812 49.9062 25.6094C50.2344 25.6797 50.5449 25.7441 50.8379 25.8027C51.1426 25.8613 51.4355 25.9258 51.7168 25.9961C51.998 26.0547 52.2324 26.1309 52.4199 26.2246C52.7949 26.4121 52.9824 26.7285 52.9824 27.1738C52.9824 27.584 52.8887 27.9062 52.7012 28.1406ZM62.4746 28C60.9043 28 60.1191 27.5664 60.1191 26.6992C60.1191 26.3125 60.2129 26.002 60.4004 25.7676C60.7402 25.8613 61.0859 25.9082 61.4375 25.9082C61.7891 25.9082 62.0879 25.8965 62.334 25.873C62.5801 25.8496 62.8086 25.75 63.0195 25.5742C63.4531 25.1758 63.7227 24.291 63.8281 22.9199L65.6387 4.25195C65.6621 3.95898 65.5625 3.73047 65.3398 3.56641C65.1172 3.40234 64.8418 3.28516 64.5137 3.21484C64.1855 3.14453 63.8984 3.08594 63.6523 3.03906C63.418 2.99219 63.2129 2.92187 63.0371 2.82812C62.6738 2.65234 62.4922 2.35352 62.4922 1.93164C62.4922 1.49805 62.5742 1.17578 62.7383 0.964844C62.9609 1.02344 63.1602 1.05273 63.3359 1.05273H68.5391C70.2852 1.05273 71.3574 1.48047 71.7559 2.33594L78.2949 17.6816L85.0449 2.24805C85.2676 1.73242 85.6016 1.4043 86.0469 1.26367C86.4922 1.12305 87.0605 1.05273 87.752 1.05273H91.1621C92.7441 1.05273 93.5352 1.46875 93.5352 2.30078C93.5352 2.74609 93.4473 3.06836 93.2715 3.26758C92.8027 3.13867 92.416 3.07422 92.1113 3.07422C91.8184 3.07422 91.5547 3.09766 91.3203 3.14453C91.0859 3.19141 90.8984 3.2793 90.7578 3.4082C90.4648 3.6543 90.3535 4.14648 90.4238 4.88477L92.3223 24.1152C92.4043 24.9355 92.8438 25.4512 93.6406 25.6621C93.8633 25.7207 94.0977 25.791 94.3438 25.873L95.0293 26.1016C95.4629 26.2422 95.7266 26.4297 95.8203 26.6641C95.9141 26.8867 95.9609 27.1035 95.9609 27.3145C95.9609 27.6074 95.873 27.8652 95.6973 28.0879C95.4277 28.0293 95.1523 28 94.8711 28H86.8555C85.4258 28 84.7109 27.5723 84.7109 26.7168C84.7109 26.5762 84.752 26.4004 84.834 26.1895C84.916 25.9668 84.9805 25.8262 85.0273 25.7676C85.3789 25.8613 85.7012 25.9082 85.9941 25.9082C86.2988 25.9082 86.6094 25.8848 86.9258 25.8379C87.2539 25.791 87.5293 25.6797 87.752 25.5039C88.2324 25.1055 88.4375 24.3496 88.3672 23.2363L87.2246 8.1543L87.0664 5.21875L78.9805 23.1309C78.8281 23.2246 78.5938 23.2715 78.2773 23.2715C77.9609 23.2715 77.6328 23.1602 77.293 22.9375C76.9648 22.7031 76.666 22.416 76.3965 22.0762C75.9629 21.5254 75.5469 20.8223 75.1484 19.9668L68.6094 4.63867L67.1855 23.7812C67.1387 24.4492 67.2324 24.9004 67.4668 25.1348C67.7598 25.4277 68.1465 25.6387 68.627 25.7676C69.1074 25.8965 69.4824 25.9961 69.752 26.0664C70.0215 26.125 70.2559 26.207 70.4551 26.3125C70.8887 26.5234 71.1055 26.875 71.1055 27.3672C71.1055 27.6133 71.0117 27.8535 70.8242 28.0879C70.6133 28.0293 70.4141 28 70.2266 28H62.4746ZM120.43 22.5332C120.43 25.1699 120.078 26.9922 119.375 28H100.197C99.2715 28 98.6328 27.7656 98.2812 27.2969C98.1641 27.1328 98.1055 26.9512 98.1055 26.752C98.1055 26.3066 98.1992 25.9668 98.3867 25.7324C98.7852 25.8496 99.3066 25.9082 99.9512 25.9082C101.393 25.9082 102.113 25.0234 102.113 23.2539V5.20117C102.113 4.39258 101.773 3.84766 101.094 3.56641C100.895 3.47266 100.648 3.38477 100.355 3.30273L99.4766 3.07422C98.9141 2.93359 98.5625 2.76367 98.4219 2.56445C98.293 2.35352 98.2285 2.14258 98.2285 1.93164C98.2285 1.48633 98.3223 1.14648 98.5098 0.912109C98.7793 1.00586 99.3594 1.05273 100.25 1.05273H107.914C108.523 1.05273 109.01 1.15234 109.373 1.35156C109.736 1.53906 109.918 1.89063 109.918 2.40625C109.918 2.80469 109.83 3.10352 109.654 3.30273C109.209 3.18555 108.781 3.12695 108.371 3.12695C107.973 3.12695 107.656 3.17383 107.422 3.26758C107.199 3.34961 107 3.49609 106.824 3.70703C106.473 4.15234 106.285 4.88477 106.262 5.9043V23.6758C106.285 24.4961 106.525 25.0469 106.982 25.3281C107.369 25.5742 108.078 25.6973 109.109 25.6973L110.428 25.6797L111.939 25.6621C114.494 25.6621 116.164 25.0938 116.949 23.957C117.336 23.3945 117.594 22.6914 117.723 21.8477C117.863 20.9922 117.986 20.002 118.092 18.877C118.279 18.7598 118.531 18.7012 118.848 18.7012C119.445 18.7012 119.85 18.7715 120.061 18.9121C120.307 19.873 120.43 21.0801 120.43 22.5332ZM130.309 16.3281H124.42C124.291 15.9766 124.227 15.6309 124.227 15.291C124.227 14.9395 124.244 14.6406 124.279 14.3945C124.326 14.1484 124.391 13.9258 124.473 13.7266C124.684 13.293 124.93 13.0762 125.211 13.0762H130.309V6.85352C130.613 6.70117 130.947 6.625 131.311 6.625C131.686 6.625 131.996 6.64844 132.242 6.69531C132.5 6.73047 132.729 6.78906 132.928 6.87109C133.385 7.08203 133.613 7.35156 133.613 7.67969V13.0762H139.414C139.566 13.3809 139.643 13.7207 139.643 14.0957C139.643 14.4707 139.619 14.7812 139.572 15.0273C139.537 15.2617 139.473 15.4727 139.379 15.6602C139.18 16.1055 138.916 16.3281 138.588 16.3281H133.613V22.5332C133.262 22.6621 132.91 22.7266 132.559 22.7266C132.207 22.7266 131.902 22.709 131.645 22.6738C131.398 22.627 131.176 22.5625 130.977 22.4805C130.531 22.2812 130.309 22.0352 130.309 21.7422V16.3281Z" fill="url(#paint0_linear)"/>
<defs>
<linearGradient id="paint0_linear" x1="71" y1="-8" x2="71" y2="37" gradientUnits="userSpaceOnUse">
<stop stop-color="#48D138"/>
<stop offset="0.497917" stop-color="#3FDCE7"/>
<stop offset="0.857292" stop-color="#CF0D99" stop-opacity="0.73"/>
<stop offset="1" stop-color="#48D138" stop-opacity="0"/>
</linearGradient>
</defs>
</svg>
