<svg width="46" height="46" viewBox="0 0 46 46" fill="none" xmlns="http://www.w3.org/2000/svg">
<path d="M45.2416 17.5597C45.1405 17.2878 45.1219 17.3528 44.9443 17.0816L37.3646 9.50199V1.99463C37.3646 1.26053 36.7706 0.666504 36.0365 0.666504H9.29688C8.56278 0.666504 7.96875 1.26053 7.96875 1.99463V9.50199L0.389141 17.0817C0.21312 17.3501 0.190719 17.2927 0.0916406 17.5601C0.0671146 17.6257 0 18.0048 0 18.0207V44.6717C0 45.4058 0.594026 45.9998 1.32813 45.9998H44.0052C44.7393 45.9998 45.3333 45.4058 45.3333 44.6717V18.0207C45.3333 18.0054 45.2669 17.6276 45.2416 17.5597ZM37.3646 13.2581L42.0623 17.9559L37.3646 22.0661V13.2581ZM10.625 3.32275H34.7083V24.3904L22.6667 34.8492L10.625 24.3904V3.32275ZM7.96875 13.2581V22.0661L3.271 17.9558L7.96875 13.2581ZM42.6771 43.3436H2.65625V20.9477L21.7925 37.7029C22.2894 38.138 23.0383 38.1431 23.5408 37.7029L42.6771 20.9477V43.3436ZM25.7691 26.7871C26.4604 26.5419 26.8223 25.7832 26.5771 25.0919C26.3319 24.4019 25.5771 24.0413 24.8819 24.2838C24.1737 24.5341 23.4293 24.6613 22.6667 24.6613C19.0052 24.6613 16.026 21.6821 16.026 18.0207C16.026 14.3592 19.0052 11.38 22.6667 11.38C26.3281 11.38 29.3073 14.3592 29.3073 18.0207C29.3073 18.7534 28.7119 19.3488 27.9792 19.3488C27.2464 19.3488 26.651 18.7534 26.651 18.0207C26.651 15.8236 24.8637 14.0363 22.6667 14.0363C20.4696 14.0363 18.6823 15.8236 18.6823 18.0207C18.6823 20.2177 20.4696 22.005 22.6667 22.005C23.6908 22.005 24.6164 21.6059 25.3229 20.9688C26.0295 21.6059 26.955 22.005 27.9792 22.005C30.1762 22.005 31.9635 20.2177 31.9635 18.0207C31.9635 12.8949 27.7924 8.72379 22.6667 8.72379C17.5409 8.72379 13.3698 12.8949 13.3698 18.0207C13.3698 23.1464 17.5409 27.3175 22.6667 27.3175C23.7315 27.3175 24.7756 27.1386 25.7691 26.7871ZM22.6667 19.3488C21.9339 19.3488 21.3385 18.7534 21.3385 18.0207C21.3385 17.2879 21.9339 16.6925 22.6667 16.6925C23.3994 16.6925 23.9948 17.2879 23.9948 18.0207C23.9948 18.7534 23.3994 19.3488 22.6667 19.3488Z" fill="#3FDCE7"/>
</svg>
