<svg width="49" height="49" viewBox="0 0 49 49" fill="none" xmlns="http://www.w3.org/2000/svg">
<path d="M49 24.5C49 11.0069 37.9904 0 24.5 0C11.1174 0 0 10.9083 0 24.5C0 37.9904 11.0107 49 24.5 49C37.8825 49 49 38.0918 49 24.5ZM24.5 46.1289C21.1201 46.1289 18.897 38.236 18.2048 34.5488L30.7951 34.5479C30.0581 38.4745 27.7829 46.1289 24.5 46.1289ZM17.7582 31.6777C17.4717 29.3976 17.3223 26.9807 17.3223 24.5C17.3223 22.0193 17.4717 19.6024 17.7582 17.3223H31.2418C31.5283 19.6024 31.6777 22.0193 31.6777 24.5C31.6777 26.9807 31.5283 29.3976 31.2418 31.6777H17.7582ZM2.87109 24.5C2.87109 21.9849 3.30405 19.5694 4.09695 17.3213H14.8676C14.5938 19.6184 14.4512 22.0325 14.4512 24.5C14.4512 26.9675 14.5938 29.3816 14.8676 31.6777H4.09695C3.30405 29.4306 2.87109 27.0151 2.87109 24.5ZM24.5 2.87109C27.8799 2.87109 30.103 10.7639 30.7952 14.4512H18.2048C18.9419 10.5247 21.2172 2.87109 24.5 2.87109ZM34.1324 17.3223H44.903C45.6959 19.5694 46.1289 21.9849 46.1289 24.5C46.1289 27.0151 45.6959 29.4306 44.903 31.6777H34.1324C34.4062 29.3815 34.5488 26.9674 34.5488 24.5C34.5488 22.0326 34.4062 19.6185 34.1324 17.3223ZM43.6479 14.4512H33.7108C33.0775 10.8545 31.8975 6.56409 29.8657 3.54504C35.8442 5.07676 40.8316 9.10663 43.6479 14.4512ZM19.1342 3.54504C17.1021 6.56476 15.9223 10.8556 15.2891 14.4512H5.3521C8.16836 9.10663 13.1558 5.07676 19.1342 3.54504ZM5.3521 34.5488H15.2891C15.9224 38.1457 17.1024 42.4358 19.1342 45.455C13.1558 43.9232 8.16836 39.8934 5.3521 34.5488ZM29.8658 45.455C31.8979 42.4354 33.0778 38.1435 33.7109 34.5479L43.6479 34.5488C40.8316 39.8934 35.8442 43.9232 29.8658 45.455Z" fill="#3FDCE7"/>
</svg>
