<svg width="39" height="51" viewBox="0 0 39 51" fill="none" xmlns="http://www.w3.org/2000/svg">
<path d="M19.4238 29.8828C25.1909 29.8828 29.8828 25.1909 29.8828 19.4238C29.8828 13.6567 25.1909 8.96484 19.4238 8.96484C13.6567 8.96484 8.96484 13.6567 8.96484 19.4238C8.96484 25.1909 13.6567 29.8828 19.4238 29.8828ZM19.4238 11.9531C23.5432 11.9531 26.8945 15.3045 26.8945 19.4238C26.8945 23.5432 23.5432 26.8945 19.4238 26.8945C15.3045 26.8945 11.9531 23.5432 11.9531 19.4238C11.9531 15.3045 15.3045 11.9531 19.4238 11.9531Z" fill="#3FDCE7"/>
<path d="M18.1961 50.3574C18.4753 50.7599 18.9339 51 19.4238 51C19.9137 51 20.3723 50.7599 20.6515 50.3574C24.2234 45.2075 27.3315 41.2328 29.8289 38.039C35.6443 30.6021 38.8477 26.5056 38.8477 19.4238C38.8477 8.71353 30.1341 0 19.4238 0C8.71353 0 0 8.71353 0 19.4238C0 26.5128 3.18142 30.5785 8.95707 37.9592C11.4653 41.1646 14.5869 45.1538 18.1961 50.3574ZM19.4238 2.98828C28.4864 2.98828 35.8594 10.3613 35.8594 19.4238C35.8594 25.4759 33.0574 29.0592 27.4749 36.1982C25.2435 39.052 22.5291 42.5231 19.4239 46.9034C16.2848 42.4745 13.5545 38.9854 11.3104 36.1176C5.76947 29.0368 2.98828 25.4826 2.98828 19.4238C2.98828 10.3613 10.3613 2.98828 19.4238 2.98828Z" fill="#3FDCE7"/>
</svg>
